<?xml version="1.0" encoding="utf-8"?>
<!-- Generator: Adobe Illustrator 20.1.0, SVG Export Plug-In . SVG Version: 6.00 Build 0)  -->
<svg version="1.1" id="Layer_1" xmlns="http://www.w3.org/2000/svg" xmlns:xlink="http://www.w3.org/1999/xlink" x="0px" y="0px"
	 viewBox="0 0 252 144" style="enable-background:new 0 0 252 144;" xml:space="preserve">
<style type="text/css">
	.st0{fill:#64FFDA;}
	.st1{fill:#FFFFFF;}
</style>
<g>
	<path class="st0" d="M138.9,76c6.2-9.2,12.2-18.3,18.3-27.2c3.6-5.2,10.8-6,15.5-1.8c3,2.7,3.5,6.9,1,10.6
		c-6.4,9.7-12.9,19.3-19.4,29c-2,3-4.2,6-6,9.1c-4.3,7.5-15.1,5.6-18.7,0.3c-5.6-8.3-11.7-16.4-17.5-24.5c-0.4-0.5-0.8-1-1.4-1.8
		c-0.9,1.2-1.6,2.2-2.3,3.2c-5.3,7.6-10.8,15.2-16,22.9c-3.1,4.6-8.5,5.4-12.8,3.5c-5.3-2.3-6.8-7.4-3.6-12.1
		c8-11.6,16.1-23.1,24.2-34.6c0.6-0.9,1.3-1.9,1.9-2.8c4.1-6,12.4-6.3,16.8-0.5c6.2,8.2,12.2,16.4,18.3,24.6
		C137.7,74.4,138.2,75.1,138.9,76z M142.8,92.3c-0.8-1.4-1.3-2.3-1.9-3.2C133,78,125.1,66.9,117.1,55.9c-1-1.4-2-2.9-3.2-4.3
		c-1.6-1.8-3.9-2-6-0.6c-2,1.4-2.2,2.8-0.7,4.9c1.6,2.2,3.2,4.3,4.8,6.4c7.8,10.4,15.5,20.8,23.3,31.3c1,1.4,2.3,2.4,4.1,1.5
		C140.7,94.4,141.6,93.2,142.8,92.3z M146.7,88.4c7.7-11.5,15.2-22.7,22.7-34c1.4-2.1,0.4-3.9-2.1-4.9c-2.4-0.9-4.1-0.3-5.8,2.1
		c-5.1,7.7-10.3,15.3-15.4,23c-1.5,2.2-4.1,4.5-4,6.7C142.3,83.6,145,85.8,146.7,88.4z M102.4,58.3c-7.4,10.6-14.6,20.9-21.8,31.2
		c-1.6,2.4-1.3,4,0.8,5.3c2.2,1.3,4.7,0.8,6.2-1.4c6.4-9,12.7-18,18.9-27.1c0.4-0.5,0.5-1.6,0.2-2.1C105.5,62.3,104,60.4,102.4,58.3
		z"/>
	<path class="st1" d="M142.8,92.3c-1.2,1-2.1,2.2-3.4,2.8c-1.8,0.9-3.1-0.1-4.1-1.5c-7.7-10.4-15.5-20.8-23.3-31.3
		c-1.6-2.1-3.3-4.3-4.8-6.4c-1.5-2.1-1.2-3.5,0.7-4.9c2.1-1.4,4.4-1.3,6,0.6c1.2,1.3,2.2,2.8,3.2,4.3c7.9,11.1,15.9,22.1,23.8,33.2
		C141.5,89.9,142,90.8,142.8,92.3z"/>
	<path class="st1" d="M146.7,88.4c-1.8-2.6-4.5-4.8-4.6-7.1c-0.1-2.2,2.5-4.5,4-6.7c5.1-7.7,10.2-15.3,15.4-23
		c1.7-2.5,3.4-3.1,5.8-2.1c2.5,1,3.5,2.9,2.1,4.9C162,65.7,154.5,76.9,146.7,88.4z"/>
	<path class="st1" d="M102.4,58.3c1.6,2.2,3.1,4,4.4,5.9c0.3,0.5,0.2,1.5-0.2,2.1c-6.3,9-12.6,18.1-18.9,27.1
		c-1.6,2.2-4,2.7-6.2,1.4c-2.2-1.3-2.5-2.9-0.8-5.3C87.7,79.2,94.9,68.9,102.4,58.3z"/>
</g>
</svg>
